# xmcd
#
# Track frame offsets: 
#        150
#        11997
#        34388
#        50243
#        63185
#        83322
#        97968
#        125517
#        140311
#        164525
#        180374
#        195759
#        215037
#        230302
#        240357
#        253439
#        265687
#        281885
#        301920
#        316161
#
# Disc length: 4312 seconds
#
# Revision: 1
# Processed by: cddbd v1.5.2PL0 Copyright (c) Steve Scherf et al.
# Submitted via: ExactAudioCopy v1.0b3
#
DISCID=1210d614
DTITLE=Chicken Shack - The Complete Blue Horizon Sessions [Disc 2]
DYEAR=2005
DGENRE=Blues
TTITLE0=Worried About My Woman
TTITLE1=Six Nights In Seven
TTITLE2=I Wanna See My Baby
TTITLE3=Remington Ride
TTITLE4=Fishing In Your River
TTITLE5=Mean Old World
TTITLE6=Sweet Sixteen
TTITLE7=I'd Rather Go Blind
TTITLE8=Night Life
TTITLE9=The Road Of Love
TTITLE10=Look Ma, I'm Cryin'
TTITLE11=Evelyn
TTITLE12=Reconsider Baby
TTITLE13=Weekend Love
TTITLE14=Midnight Hour
TTITLE15=Tears In The Wind
TTITLE16=Horse and Cart
TTITLE17=The Way It Is
TTITLE18=Still Worried About My Woman
TTITLE19=Anji
EXTD=
EXTT0=
EXTT1=
EXTT2=
EXTT3=
EXTT4=
EXTT5=
EXTT6=
EXTT7=
EXTT8=
EXTT9=
EXTT10=
EXTT11=
EXTT12=
EXTT13=
EXTT14=
EXTT15=
EXTT16=
EXTT17=
EXTT18=
EXTT19=
PLAYORDER=
